<svg viewBox="0 0 100 100" xmlns="http://www.w3.org/2000/svg"><circle cx="50%" cy="50%" r="50%" fill="#fff"/><svg viewBox="-6 -6 84 84" xmlns="http://www.w3.org/2000/svg"><path fill="#D0CFCE" d="M51.9034 18.6019v23.7547H15.0151l-3.6664-23.7547z"/><circle cx="50.1425" cy="58.4626" r="2.3751" fill="#D0CFCE"/><circle cx="14.0346" cy="58.4626" r="2.3751" fill="#D0CFCE"/><path fill="#9B9B9A" d="M45.664 23.6443v.7898m0 12.3186v.7899m-5.3758-13.8983v.7898m0 12.3186v.7899m-5.3759-13.8983v.7898m0 12.3186v.7899m-5.3758-13.8983v.7898m0 12.3186v.7899m-5.3759-13.8983v.7898m0 12.3186v.7899m-5.3758-13.8983v.7898m0 12.3186v.7899m26.8792-7.5434v.7898m-5.3758-.7898v.7898m-5.3759-.7898v.7898m-5.3758-.7898v.7898m-5.3759-.7898v.7898m-5.3758-.7898v.7898"/><g fill="none" stroke="#000" stroke-linecap="round" stroke-linejoin="round" stroke-miterlimit="10" stroke-width="2"><path d="M51.9034 18.6019v23.7547H15.0151l-3.6664-23.7547zm-.0001 0 3.6027-7.5229h5.1453M14.0346 51.8611h37.8715"/><circle cx="50.1425" cy="58.4626" r="2.3751"/><circle cx="14.0346" cy="58.4626" r="2.3751"/><path d="M51.9033 42.3566s4.8415.3558 4.8415 4.7876c0 5.1219-4.5827 4.7121-4.5827 4.7121m-6.4981-28.212v.7898m0 12.3186v.7899m-5.3758-13.8983v.7898m0 12.3186v.7899m-5.3759-13.8983v.7898m0 12.3186v.7899m-5.3758-13.8983v.7898m0 12.3186v.7899m-5.3759-13.8983v.7898m0 12.3186v.7899m-5.3758-13.8983v.7898m0 12.3186v.7899m26.8792-7.5434v.7898m-5.3758-.7898v.7898m-5.3759-.7898v.7898m-5.3758-.7898v.7898m-5.3759-.7898v.7898m-5.3758-.7898v.7898"/></g></svg></svg>